<svg xmlns="http://www.w3.org/2000/svg" viewBox="0 0 100 100">
    <defs>
        <style>
            .a{fill:#afafde;}.a,.b,.c,.d,.e,.f{stroke:#000;}.a,.b,.c,.d,.e{stroke-linejoin:round;stroke-width:0.87px;fill-rule:evenodd;}.b{fill:#353564;}.c{fill:#e9e9ff;}.d{fill:#19aeff;}.e{fill:#0084c8;}.f{fill:none;stroke-miterlimit:5.58;stroke-width:1.31px;}
        </style>
    </defs>
    <title>Selenoid</title>
    <path class="a" d="M12.9,58.3l30.5,29L88.5,66.2,49.8,48.1Z"/>
    <path class="b" d="M11.5,18.5l1.4,39.8L49.8,48.1,48.6,14.7Z"/>
    <path class="c" d="M48.6,14.7l38.3,4.4,1.6,47.1L49.8,48.1Z"/>
    <path class="d" d="M11.5,18.5l29.7,7.7,45.7-7.1L48.6,14.7Z"/>
    <path class="e" d="M41.2,26.2l2.2,61.1L88.5,66.2,86.9,19.1Z"/>
    <path class="d" d="M11.5,18.5l29.7,7.7,2.2,61.1-30.5-29Z"/>
    <path class="f" d="M14.5,30.2s3.9-8,11.9.2c3.8,4,6.6,8.5,10.2,2.5"/>
    <path class="f" d="M14.5,35.5s3.9-8,11.9.2c3.8,4,6.6,8.4,10.2,2.5"/>
    <path class="f" d="M14.5,40.7s3.9-8,11.9.2c3.8,4,6.6,8.4,10.2,2.5"/>
</svg>